PathFileType	4	(X/Y/Z)	s08c0202.trc
DataRate	CameraRate	NumFrames	NumMarkers	Units	OrigDataRate	OrigDataStartFrame	OrigNumFrames
200	200	4	50	mm	200	1250	2000
Frame#	Time	racr			lacr			c7			jug			rlel			rdr			llel			ldr			s2			lic			ric			lasi			rasi			rpsi			lpsi			rgt			lgt			rth1			rth2			rth3			rth4			rlfc			rmfc			rsh1			rsh2			rsh3			rsh4			rlmal			rmmal			rcal			rtoe			rmt5			lth1			lth2			lth4			lth3			llfc			lmfc			llmal			lmmal			lcal			lmt5			lsh1			lsh2			lsh3			lsh4			ltoe			SBIKE			LBIKE			RBIKE			
		X1	Y1	Z1	X2	Y2	Z2	X3	Y3	Z3	X4	Y4	Z4	X5	Y5	Z5	X6	Y6	Z6	X7	Y7	Z7	X8	Y8	Z8	X9	Y9	Z9	X10	Y10	Z10	X11	Y11	Z11	X12	Y12	Z12	X13	Y13	Z13	X14	Y14	Z14	X15	Y15	Z15	X16	Y16	Z16	X17	Y17	Z17	X18	Y18	Z18	X19	Y19	Z19	X20	Y20	Z20	X21	Y21	Z21	X22	Y22	Z22	X23	Y23	Z23	X24	Y24	Z24	X25	Y25	Z25	X26	Y26	Z26	X27	Y27	Z27	X28	Y28	Z28	X29	Y29	Z29	X30	Y30	Z30	X31	Y31	Z31	X32	Y32	Z32	X33	Y33	Z33	X34	Y34	Z34	X35	Y35	Z35	X36	Y36	Z36	X37	Y37	Z37	X38	Y38	Z38	X39	Y39	Z39	X40	Y40	Z40	X41	Y41	Z41	X42	Y42	Z42	X43	Y43	Z43	X44	Y44	Z44	X45	Y45	Z45	X46	Y46	Z46	X47	Y47	Z47	X48	Y48	Z48	X49	Y49	Z49	X50	Y50	Z50	
1250	6.2500	521.607990	1325.062431	-46.366423	547.103129	1329.577240	-402.072517	523.008863	1420.721023	-220.512045	473.385996	1264.162020	-224.968091	529.341322	1074.572836	54.195444	765.678238	932.004203	-62.200678	545.366856	1094.055055	-551.439138	748.753085	931.462958	-452.526795	-22.266511	1206.749235	-271.347920	139.534189	1194.800267	-416.693377	112.086702	1224.644035	-102.213228	160.411226	1142.113732	-384.943730	139.984266	1183.628232	-122.284397	2.118881	1253.056891	-226.018425	7.318039	1246.815746	-319.155551	75.382736	1139.724826	-59.674020	65.867067	1066.778438	-438.492237	225.118885	1063.590969	-63.995107	312.534259	1048.427590	-68.810119	378.813266	993.171414	-70.127477	326.466604	1079.154798	-85.067536	475.465967	925.855304	-88.622381	458.207887	907.607284	-198.810765	391.307831	838.143446	-54.412008	355.968484	756.045400	-69.201533	287.645199	704.009988	-67.624935	381.466007	739.896526	-96.212958	206.734694	608.235783	-69.544410	228.850181	617.901875	-156.534097	120.301770	608.796754	-111.720964	391.061980	481.432084	-111.312714	297.450746	490.598627	-42.941624	113.372128	938.416721	-456.478713	164.803812	867.358754	-459.301945	198.969716	880.297253	-452.581250	173.280055	778.915055	-454.041647	211.599973	657.939395	-423.063770	219.674725	635.823279	-318.298217	165.108115	242.490499	-407.529112	199.920246	263.730058	-327.540599	107.037600	230.407129	-364.324087	300.091836	135.226202	-421.780139	183.865390	530.550275	-443.027674	200.535975	447.632967	-426.850148	173.773403	363.769457	-421.112157	228.037197	449.896329	-397.786990	386.357539	154.826128	-354.583625	-145.848494	936.899043	-229.954098	10.730566	79.693883	-427.192638	10.702047	80.371209	-28.697650	
1251	6.2550	520.987946	1323.989419	-43.818565	547.604693	1329.113034	-398.982520	522.940841	1419.550052	-217.777830	473.128641	1263.038546	-222.342814	528.949181	1073.152725	56.006936	765.791796	932.465053	-61.176940	546.419328	1094.794641	-550.437404	749.619480	931.826097	-452.570422	-22.892829	1207.647299	-272.148083	139.660527	1194.783804	-416.595148	111.389912	1225.351459	-102.651144	159.973316	1141.948109	-385.340391	136.457359	1185.108334	-119.900387	1.284747	1253.433973	-225.824786	7.229460	1247.697558	-319.916165	73.992114	1140.503149	-60.348983	65.083313	1067.114811	-438.815181	223.637700	1065.123244	-63.410837	311.051540	1050.113625	-67.831733	377.444730	994.999184	-68.741214	325.035572	1080.836131	-83.862028	474.662609	927.940983	-86.556900	458.059232	909.769045	-197.141237	391.463996	838.777150	-53.043593	357.500102	756.089259	-68.129422	290.052325	702.919928	-67.001598	383.515828	740.493136	-94.739383	211.271780	605.240439	-69.418369	233.247045	615.624089	-156.191254	124.929519	602.000712	-112.012768	400.664295	486.795017	-111.334799	306.901481	491.521172	-42.886754	111.392927	938.200135	-457.509175	162.790058	867.161333	-461.028364	197.019204	880.315079	-455.261277	171.314324	778.788249	-455.285889	211.187098	658.484769	-423.074789	219.904421	636.368080	-317.953580	155.700181	244.126433	-406.465335	191.455729	264.680435	-326.638085	97.618467	232.639132	-362.795211	289.096133	135.134721	-421.749617	181.230790	531.618913	-442.444951	195.856339	448.306383	-426.142186	167.155232	365.155832	-420.107104	223.694873	450.027623	-397.255623	376.066158	153.554713	-355.195907	-145.647202	936.760964	-229.873383	10.714904	79.661180	-427.237797	10.730190	80.628265	-28.558218	
1252	6.2600	520.361688	1322.900020	-41.342935	548.162703	1328.472545	-396.086905	522.886302	1418.355179	-215.109907	472.881630	1261.892240	-219.787080	528.316259	1071.996153	58.092823	765.865647	932.869132	-60.140503	547.863166	1095.254592	-548.826170	750.554506	932.040008	-452.131326	-23.379862	1208.322264	-272.736301	139.588629	1194.970812	-416.526621	110.496019	1226.394641	-102.999234	159.566051	1141.947691	-385.539185	132.790360	1186.557236	-117.235078	0.590087	1254.468220	-226.437329	6.890872	1248.610972	-320.637084	72.497761	1141.278017	-61.028166	64.184413	1067.512157	-439.076239	222.100822	1065.887764	-62.708770	309.533535	1050.905958	-66.690755	375.807222	995.667358	-67.457174	323.531198	1081.710298	-82.564112	473.357366	928.094226	-84.663798	457.441416	910.803081	-195.572591	390.655626	838.110249	-51.806762	358.325927	754.794120	-66.989450	291.987258	700.252948	-66.386981	384.912327	739.697075	-93.531228	215.611430	601.052519	-69.548533	237.195149	612.163675	-156.180364	129.209520	594.025468	-111.829472	409.899477	491.669899	-111.110404	315.969413	491.801991	-42.673581	110.045137	938.265051	-458.152862	161.565702	867.498633	-462.541969	196.033547	880.806385	-457.303881	170.856548	779.092453	-455.361136	212.060960	659.862309	-422.808686	221.600979	637.348025	-317.571684	146.758827	246.654897	-405.258715	196.071590	276.784455	-339.038937	88.583536	235.894978	-361.094761	278.328172	135.935708	-421.642050	179.707097	533.284794	-441.798701	191.984338	449.551782	-424.949394	161.243011	367.403577	-418.969785	220.610994	451.580725	-398.454322	366.098737	152.882794	-355.412732	-145.728780	936.759124	-229.833064	10.694586	79.696741	-427.183546	10.692199	80.565906	-28.530240	
1253	6.2650	519.690933	1321.740392	-39.037046	562.106636	1332.481835	-409.645871	522.815074	1417.095922	-212.599507	482.761303	1257.829900	-218.790504	527.916262	1070.740684	59.942225	765.877383	933.261497	-59.193001	549.057272	1095.578701	-547.722329	751.454776	932.165209	-451.605734	-23.953441	1209.059645	-273.430538	139.343402	1195.425432	-416.440484	109.683471	1227.312177	-103.199668	158.969645	1142.141961	-385.546621	129.019029	1187.966111	-114.320329	0.155809	1255.166966	-227.207198	6.762822	1249.499800	-320.646985	71.059582	1141.969463	-61.795340	63.225949	1068.009104	-439.324437	220.404698	1066.069773	-61.895473	307.796431	1050.809247	-65.770960	373.859126	995.268474	-66.150152	322.020246	1081.565886	-81.144991	471.746614	927.510705	-82.875098	456.323270	910.548713	-193.929758	388.898303	836.161290	-50.867865	358.727498	751.897382	-65.888067	293.596305	696.047029	-65.827328	385.794295	737.314822	-92.241557	219.438832	595.289681	-69.654187	240.815270	607.395622	-156.172023	133.412527	584.415815	-111.661084	418.866768	496.200538	-110.686747	325.030597	491.397943	-42.424902	109.442084	938.611633	-458.287867	161.377774	868.183586	-463.167205	195.918471	881.828618	-459.072824	171.681329	780.024871	-455.052990	214.628642	661.591786	-422.610547	224.584285	639.154872	-317.238336	138.537723	250.252321	-404.001644	188.368653	279.277035	-337.792341	79.990678	240.436553	-359.639757	267.650829	137.195065	-421.347104	179.375010	535.582324	-440.822132	189.214234	451.629820	-423.963519	156.210695	370.431627	-417.728995	218.047300	452.929154	-397.602288	355.919669	152.566259	-355.854531	-145.872223	936.746517	-229.740376	10.673367	79.705652	-427.164542	10.644251	80.347976	-28.681360	
